<svg xmlns="http://www.w3.org/2000/svg" width="18" height="20" viewBox="0 0 18 20">
  <path id="Caminho_2230" data-name="Caminho 2230" d="M727,64a1,1,0,1,1,1,1A1,1,0,0,1,727,64Zm5-1h4a1,1,0,0,1,0,2h-4a1,1,0,0,1,0-2Zm6,5H726a1,1,0,0,1-1-1V61h14v6A1,1,0,0,1,738,68ZM726,54h1v1a1,1,0,0,0,2,0V54h6v1a1,1,0,0,0,2,0V54h1a1,1,0,0,1,1,1v4H725V55A1,1,0,0,1,726,54Zm12-2h-1V51a1,1,0,0,0-2,0v1h-6V51a1,1,0,0,0-2,0v1h-1a3,3,0,0,0-3,3V67a3,3,0,0,0,3,3h12a3,3,0,0,0,3-3V55A3,3,0,0,0,738,52Z" transform="translate(-723 -50)" fill="#666" fill-rule="evenodd"/>
</svg>
