<svg id="Iconly_Bold_Category" data-name="Iconly/Bold/Category" xmlns="http://www.w3.org/2000/svg" width="15" height="15" viewBox="0 0 15 15">
  <g id="Category">
    <path id="Category-2" data-name="Category" d="M10.56,15a1.911,1.911,0,0,1-1.906-1.92V10.523A1.907,1.907,0,0,1,10.56,8.6H13.1A1.911,1.911,0,0,1,15,10.523V13.08A1.915,1.915,0,0,1,13.1,15ZM1.9,15A1.916,1.916,0,0,1,0,13.08V10.523A1.912,1.912,0,0,1,1.9,8.6H4.44a1.907,1.907,0,0,1,1.9,1.921V13.08A1.911,1.911,0,0,1,4.44,15ZM10.56,6.4a1.907,1.907,0,0,1-1.906-1.92V1.921A1.912,1.912,0,0,1,10.56,0H13.1A1.916,1.916,0,0,1,15,1.921V4.478A1.911,1.911,0,0,1,13.1,6.4ZM1.9,6.4A1.911,1.911,0,0,1,0,4.478V1.921A1.916,1.916,0,0,1,1.9,0H4.44a1.911,1.911,0,0,1,1.9,1.921V4.478A1.906,1.906,0,0,1,4.44,6.4Z" fill="#666"/>
  </g>
</svg>
