<svg xmlns="http://www.w3.org/2000/svg" width="12" height="12" viewBox="0 0 12 12">
  <g id="bikini60s_time" opacity="0.2">
    <path id="Caminho_2046" data-name="Caminho 2046" d="M6,12a6,6,0,1,1,6-6A6.018,6.018,0,0,1,6,12ZM6,1.2A4.8,4.8,0,1,0,10.8,6,4.814,4.814,0,0,0,6,1.2Z"/>
    <path id="Caminho_2047" data-name="Caminho 2047" d="M11.88,8.8l-2.4-.6A.584.584,0,0,1,9,7.6v-3a.6.6,0,1,1,1.2,0V7.12l1.92.48a.569.569,0,0,1,.42.72A.551.551,0,0,1,11.88,8.8Z" transform="translate(-3.6 -1.6)"/>
  </g>
</svg>
