<svg xmlns="http://www.w3.org/2000/svg" width="40" height="40" viewBox="0 0 40 40">
  <g id="Group_586" data-name="Group 586" transform="translate(0.264)">
    <circle id="Ellipse_120" data-name="Ellipse 120" cx="20" cy="20" r="20" transform="translate(-0.264)" fill="#5344ff" opacity="0.1"/>
    <g id="Group_1237" data-name="Group 1237" transform="translate(12 12)">
      <path id="Vector" d="M10.264,12.405a1.912,1.912,0,0,0,1.923-1.81v-.026l1.865-2.085a1.132,1.132,0,0,1,1.55-.15,1.09,1.09,0,0,1,.128,1.56l-3.724,4.248a2.617,2.617,0,0,1-1.97.891h-5.6L3.467,16,0,12.636l2.484-2.451A3.8,3.8,0,0,1,6.406,9.3l.545.191h3.357a1.056,1.056,0,0,1,.986.672,1.048,1.048,0,0,1,.071.413,1.085,1.085,0,0,1-1.1,1.011H8.25a.408.408,0,1,0,0,.817ZM8.232,4.588a5.882,5.882,0,0,0,.846.392c.125.049.25.1.373.154a1.73,1.73,0,0,1,.409.245.47.47,0,0,1-.113.833A1.347,1.347,0,0,1,9.04,6.3a3.3,3.3,0,0,1-1.133-.337.539.539,0,0,0-.245-.078c-.2,0-.258.2-.292.3-.064.2-.121.41-.177.616-.092.337-.034.462.282.616a3.927,3.927,0,0,0,1.1.314.912.912,0,0,1,.177.038.813.813,0,0,1,.015.191v.4A.366.366,0,0,0,9,8.735a.369.369,0,0,0,.152.024h.607a.353.353,0,0,0,.352-.234.35.35,0,0,0,.019-.148V7.82c0-.124.03-.163.164-.2A2.135,2.135,0,0,0,11.4,6.912,1.944,1.944,0,0,0,11.817,5.3a2.086,2.086,0,0,0-1.059-1.426,9,9,0,0,0-.952-.431L9.681,3.4a2.206,2.206,0,0,1-.532-.3.4.4,0,0,1-.164-.358.411.411,0,0,1,.264-.31.866.866,0,0,1,.309-.06,2.544,2.544,0,0,1,1.259.248c.4.194.493-.1.525-.222.054-.163.1-.327.149-.5l.056-.2a.365.365,0,0,0-.1-.4.368.368,0,0,0-.127-.072,3.475,3.475,0,0,0-.872-.253c-.271-.042-.271-.042-.271-.314,0-.57-.044-.654-.6-.654h-.3c-.328.01-.417.106-.425.426V.768c0,.24,0,.24-.24.327a1.907,1.907,0,0,0-1.4,1.766A1.793,1.793,0,0,0,8.232,4.588Z" fill="#5344ff"/>
    </g>
  </g>
</svg>
