<svg id="Group_586" data-name="Group 586" xmlns="http://www.w3.org/2000/svg" width="40" height="40" viewBox="0 0 40 40">
  <circle id="Ellipse_120" data-name="Ellipse 120" cx="20" cy="20" r="20" fill="#44a5ff" opacity="0.1"/>
  <g id="Group_1236" data-name="Group 1236" transform="translate(12 12)">
    <g id="Group">
      <path id="Vector" d="M14.934,0,8.654.131.111,8.68a.379.379,0,0,0,0,.536l6.674,6.674a.379.379,0,0,0,.536,0l8.549-8.543L16,1.066a1.124,1.124,0,0,0-.262-.792,1.161,1.161,0,0,0-.8-.274ZM13.142,1.905a.953.953,0,1,1-.673.28A.949.949,0,0,1,13.142,1.905ZM7.957,4.185a.381.381,0,0,1,.423.387v.411a1.756,1.756,0,0,1,1.512,1.2.384.384,0,1,1-.738.208.941.941,0,0,0-.774-.631V7.733a4.465,4.465,0,0,1,.863.393A1.428,1.428,0,0,1,9.9,9.335a1.633,1.633,0,0,1-.572,1.256,1.949,1.949,0,0,1-.953.429v.411a.381.381,0,1,1-.762,0v-.411a1.764,1.764,0,0,1-1.512-1.2.384.384,0,1,1,.738-.208.95.95,0,0,0,.774.637V8.263a4.465,4.465,0,0,1-.863-.393,1.418,1.418,0,0,1-.661-1.2,1.646,1.646,0,0,1,.572-1.262,1.927,1.927,0,0,1,.953-.423V4.572a.381.381,0,0,1,.339-.387ZM7.618,5.763a1.116,1.116,0,0,0-.458.22.847.847,0,0,0-.3.685.527.527,0,0,0,.3.56,2.745,2.745,0,0,0,.458.208V5.763Zm.762,2.8v1.679a1.144,1.144,0,0,0,.458-.226.835.835,0,0,0,.3-.679.535.535,0,0,0-.3-.566,2.746,2.746,0,0,0-.458-.208Z" fill="#44a5ff"/>
    </g>
  </g>
</svg>
