<svg xmlns="http://www.w3.org/2000/svg" width="40" height="40" viewBox="0 0 40 40">
  <g id="Group_586" data-name="Group 586" transform="translate(-0.118)">
    <circle id="Ellipse_120" data-name="Ellipse 120" cx="20" cy="20" r="20" transform="translate(0.118)" fill="#cb36ff" opacity="0.1"/>
    <g id="Group_1235" data-name="Group 1235" transform="translate(12 14.611)">
      <g id="Group">
        <path id="Vector" d="M3.785,1.993A1.944,1.944,0,0,1,1.892,3.985,1.944,1.944,0,0,1,0,1.993,1.944,1.944,0,0,1,1.892,0,1.944,1.944,0,0,1,3.785,1.993Z" transform="translate(6.081 0.46)" fill="#cb36ff"/>
        <path id="Vector-2" data-name="Vector" d="M6.863,4.713a12.453,12.453,0,0,1-6.842,0C-.464-1.571,7.348-1.571,6.863,4.713Z" transform="translate(4.556 4.585)" fill="#cb36ff"/>
        <path id="Vector-3" data-name="Vector" d="M3.3,1.737A1.7,1.7,0,0,1,1.65,3.474,1.7,1.7,0,0,1,0,1.737,1.7,1.7,0,0,1,1.65,0,1.7,1.7,0,0,1,3.3,1.737Z" transform="translate(1.375)" fill="#cb36ff"/>
        <path id="Vector-4" data-name="Vector" d="M5.984,4.1a11.266,11.266,0,0,1-5.968,0C-.372-1.367,6.372-1.367,5.984,4.1Z" transform="translate(0 3.564)" fill="#cb36ff"/>
        <path id="Vector-5" data-name="Vector" d="M3.3,1.737A1.7,1.7,0,0,1,1.65,3.474,1.7,1.7,0,0,1,0,1.737,1.7,1.7,0,0,1,1.65,0,1.7,1.7,0,0,1,3.3,1.737Z" transform="translate(11.37)" fill="#cb36ff"/>
        <path id="Vector-6" data-name="Vector" d="M.02,4.1a11.087,11.087,0,0,0,5.92,0C6.377-1.367-.416-1.367.02,4.1Z" transform="translate(10.04 3.564)" fill="#cb36ff"/>
      </g>
    </g>
  </g>
</svg>
