<svg xmlns="http://www.w3.org/2000/svg" width="45" height="45" viewBox="0 0 45 45">
  <g id="Grupo_1997" data-name="Grupo 1997" transform="translate(-940 -557)">
    <g id="Grupo_1996" data-name="Grupo 1996">
      <g id="Elipse_411" data-name="Elipse 411" transform="translate(940 557)" fill="#fff" stroke="#666" stroke-width="1">
        <circle cx="22.5" cy="22.5" r="22.5" stroke="none"/>
        <circle cx="22.5" cy="22.5" r="22" fill="none"/>
      </g>
    </g>
    <path id="Icon_awesome-facebook" data-name="Icon awesome-facebook" d="M21.4,10.979A10.417,10.417,0,1,0,9.352,21.27V13.99H6.705V10.979H9.352v-2.3a3.675,3.675,0,0,1,3.934-4.052,16.031,16.031,0,0,1,2.332.2V7.4H14.3a1.506,1.506,0,0,0-1.7,1.627v1.955H15.5l-.462,3.011H12.607V21.27A10.42,10.42,0,0,0,21.4,10.979Z" transform="translate(951.437 568.438)" fill="#666"/>
  </g>
</svg>
