<svg xmlns="http://www.w3.org/2000/svg" width="50" height="48" viewBox="0 0 50 48">
  <g id="Group_1399" data-name="Group 1399" transform="translate(-679 -267)">
    <g id="Ellipse_36" data-name="Ellipse 36" transform="translate(679 267)" fill="#f8f8f8" stroke="#e6e6e6" stroke-width="1">
      <ellipse cx="25" cy="24" rx="25" ry="24" stroke="none"/>
      <ellipse cx="25" cy="24" rx="24.5" ry="23.5" fill="none"/>
    </g>
    <g id="Group_508" data-name="Group 508" transform="translate(693.442 281.946)" opacity="0.6">
      <path id="Camera" d="M16.021,17.756H4.466A4.389,4.389,0,0,1,0,13.46V7.607a4.389,4.389,0,0,1,4.466-4.3.2.2,0,0,0,.194-.118l.062-.119.106-.216c.259-.526.553-1.122.733-1.469A2.5,2.5,0,0,1,7.827,0h4.825a2.511,2.511,0,0,1,2.274,1.389c.163.314.41.817.65,1.3l.139.282.1.217a.234.234,0,0,0,.2.118,4.389,4.389,0,0,1,4.466,4.3V13.46A4.389,4.389,0,0,1,16.021,17.756ZM10.243,6.316A4.1,4.1,0,0,0,7.385,7.459a3.746,3.746,0,0,0-1.168,2.729A3.809,3.809,0,0,0,7.4,12.928a4.118,4.118,0,0,0,2.848,1.133,4.068,4.068,0,0,0,2.838-1.133,3.762,3.762,0,0,0,.011-5.479A4.083,4.083,0,0,0,10.243,6.316Zm5.748-.237a.893.893,0,1,0,.932.9A.911.911,0,0,0,15.991,6.08Zm-5.748,6.5a2.525,2.525,0,0,1-1.762-.7,2.335,2.335,0,0,1-.727-1.695v-.009A2.259,2.259,0,0,1,8.471,8.5a2.568,2.568,0,0,1,3.534-.01,2.335,2.335,0,0,1,.728,1.695A2.46,2.46,0,0,1,10.244,12.583Z" transform="translate(0 0)" fill="#061624"/>
    </g>
  </g>
</svg>
