<svg id="Group_1214" data-name="Group 1214" xmlns="http://www.w3.org/2000/svg" width="7" height="8.708" viewBox="0 0 7 8.708">
  <g id="Group_1228" data-name="Group 1228">
    <path id="Vector" d="M.125.633,3.111,3.241a.526.526,0,0,0,.175.1.671.671,0,0,0,.428,0,.526.526,0,0,0,.175-.1L6.876.633C7.161.384,6.924,0,6.486,0H.513C.075,0-.161.384.125.633Z" transform="translate(0 5.333)" fill="#061624"/>
    <path id="Vector-2" data-name="Vector" d="M.125-.633,3.111-3.241a.526.526,0,0,1,.175-.1A.661.661,0,0,1,3.5-3.375a.661.661,0,0,1,.214.035.526.526,0,0,1,.175.1L6.876-.633c.285.249.049.633-.389.633H.513C.075,0-.161-.384.125-.633Z" transform="translate(0 3.375)" fill="#061624"/>
  </g>
</svg>
