<svg xmlns="http://www.w3.org/2000/svg" width="22.707" height="22.707" viewBox="0 0 22.707 22.707">
  <path id="Caminho_2225" data-name="Caminho 2225" d="M354.138,61.092a1.261,1.261,0,0,0-1.262,1.261,2.523,2.523,0,1,1-5.046,0,1.261,1.261,0,1,0-2.523,0,5.046,5.046,0,0,0,10.092,0A1.261,1.261,0,0,0,354.138,61.092Zm3.784,10.092H342.784a1.263,1.263,0,0,1-1.262-1.261V58.569h17.661V69.922A1.263,1.263,0,0,1,357.922,71.184ZM345.46,53.893a1.273,1.273,0,0,1,.892-.37h8a1.273,1.273,0,0,1,.892.37l2.153,2.153H343.307ZM360.6,55.676l-3.567-3.567A3.757,3.757,0,0,0,354.355,51h-8a3.757,3.757,0,0,0-2.676,1.109l-3.567,3.567A3.757,3.757,0,0,0,339,58.353V69.922a3.789,3.789,0,0,0,3.784,3.784h15.138a3.789,3.789,0,0,0,3.784-3.784V58.353A3.757,3.757,0,0,0,360.6,55.676Z" transform="translate(-339 -51)" fill="#666" fill-rule="evenodd"/>
</svg>
