<svg xmlns="http://www.w3.org/2000/svg" width="22.225" height="20.002" viewBox="0 0 22.225 20.002">
  <path id="Caminho_2226" data-name="Caminho 2226" d="M258.78,202.779a1.111,1.111,0,1,0-1.111,1.111A1.112,1.112,0,0,0,258.78,202.779Zm2.223,0a3.334,3.334,0,1,1-3.334-3.334A3.338,3.338,0,0,1,261,202.779Zm-10-3.334a2.222,2.222,0,1,0-2.222,2.222A2.225,2.225,0,0,0,251,199.445Zm2.223,0A4.445,4.445,0,1,1,248.779,195,4.449,4.449,0,0,1,253.224,199.445Zm1.045,8.941a5.556,5.556,0,0,1,8.957,4.394,1.111,1.111,0,1,1-2.223,0,3.328,3.328,0,0,0-5.4-2.613,7.748,7.748,0,0,1,.951,3.724,1.111,1.111,0,0,1-2.223,0,5.556,5.556,0,1,0-11.112,0,1.111,1.111,0,0,1-2.223,0,7.774,7.774,0,0,1,13.268-5.505Z" transform="translate(-241 -195)" fill="#002060" fill-rule="evenodd"/>
</svg>
