<svg xmlns="http://www.w3.org/2000/svg" width="25.301" height="23.495" viewBox="0 0 25.301 23.495">
  <path id="Caminho_2224" data-name="Caminho 2224" d="M404.772,65.358h-9.943l-2.137-7.832h16Zm6.136-9.2a2.593,2.593,0,0,0-2.22-1.237H391.981l-.805-2.954a1.306,1.306,0,0,0-1.26-.962h-2.611a1.305,1.305,0,1,0,0,2.611h1.613l3.653,13.4a1.306,1.306,0,0,0,1.26.962h11.747a1.307,1.307,0,0,0,1.168-.722l4.276-8.553A2.592,2.592,0,0,0,410.908,56.153ZM393.179,70.579a1.958,1.958,0,1,0,1.958,1.958A1.958,1.958,0,0,0,393.179,70.579Zm11.095,1.958a1.958,1.958,0,1,1,1.958,1.958A1.958,1.958,0,0,1,404.274,72.537Z" transform="translate(-386 -51)" fill="#666" fill-rule="evenodd"/>
</svg>
