<svg xmlns="http://www.w3.org/2000/svg" width="200" height="152" viewBox="0 0 200 152">
  <g id="Image_big" data-name="Image big" transform="translate(-30 -169)">
    <rect id="Retângulo_1866" data-name="Retângulo 1866" width="200" height="152" rx="10" transform="translate(30 169)" fill="#eaeaeb"/>
    <g id="image" transform="translate(111.067 229.8)">
      <path id="Caminho_2059" data-name="Caminho 2059" d="M124.783,67.534a5.521,5.521,0,1,0-5.521-5.521A5.521,5.521,0,0,0,124.783,67.534Zm0-9.411a3.89,3.89,0,1,1-3.89,3.89A3.89,3.89,0,0,1,124.783,58.123Zm0,0" transform="translate(-109.536 -51.925)" fill="#fff"/>
      <path id="Caminho_2060" data-name="Caminho 2060" d="M33.922.484H4.078A4.082,4.082,0,0,0,0,4.562V26.581a4.082,4.082,0,0,0,4.078,4.078H33.922A4.082,4.082,0,0,0,38,26.581V4.562A4.082,4.082,0,0,0,33.922.484ZM4.078,2.115H33.922a2.449,2.449,0,0,1,2.447,2.447V20.64L31.49,13.726a4.078,4.078,0,0,0-6.621-.058l-5.554,7.583a2.441,2.441,0,0,1-3.334.587L11.829,19.06a4.07,4.07,0,0,0-4.513-.015L1.631,22.83V4.562A2.449,2.449,0,0,1,4.078,2.115ZM33.922,29.027H4.078a2.449,2.449,0,0,1-2.447-2.447V24.79l6.585-4.385a2.441,2.441,0,0,1,2.706.01l4.152,2.779a4.068,4.068,0,0,0,5.557-.979l5.554-7.583a2.446,2.446,0,0,1,3.972.035l6.212,8.8v3.112A2.449,2.449,0,0,1,33.922,29.027Zm0,0" transform="translate(0 -0.484)" fill="#fff"/>
    </g>
  </g>
</svg>
