<svg xmlns="http://www.w3.org/2000/svg" width="27.05" height="20.945" viewBox="0 0 27.05 20.945">
  <g id="Icon_ionic-ios-menu" data-name="Icon ionic-ios-menu" transform="translate(-4.5 -10.125)">
    <path id="Caminho_666" data-name="Caminho 666" d="M30.423,13.117H5.627c-.62,0-1.127-.673-1.127-1.5h0c0-.823.507-1.5,1.127-1.5h24.8c.62,0,1.127.673,1.127,1.5h0C31.55,12.444,31.043,13.117,30.423,13.117Z"/>
    <path id="Caminho_667" data-name="Caminho 667" d="M30.423,19.867H5.627c-.62,0-1.127-.673-1.127-1.5h0c0-.823.507-1.5,1.127-1.5h24.8c.62,0,1.127.673,1.127,1.5h0C31.55,19.194,31.043,19.867,30.423,19.867Z" transform="translate(0 2.227)"/>
    <path id="Caminho_668" data-name="Caminho 668" d="M30.423,26.617H5.627c-.62,0-1.127-.673-1.127-1.5h0c0-.823.507-1.5,1.127-1.5h24.8c.62,0,1.127.673,1.127,1.5h0C31.55,25.944,31.043,26.617,30.423,26.617Z" transform="translate(0 4.453)"/>
  </g>
</svg>
