<svg xmlns="http://www.w3.org/2000/svg" xmlns:xlink="http://www.w3.org/1999/xlink" width="259.262" height="327.52" viewBox="0 0 259.262 327.52">
  <defs>
    <linearGradient id="linear-gradient" x1="0.099" y1="0.598" x2="0.561" y2="0.845" gradientUnits="objectBoundingBox">
      <stop offset="0" stop-color="#f9af19"/>
      <stop offset="1" stop-color="#ed6a2d"/>
    </linearGradient>
    <linearGradient id="linear-gradient-2" x1="0.771" y1="0.753" x2="0.184" y2="0.441" gradientUnits="objectBoundingBox">
      <stop offset="0" stop-color="#e02435"/>
      <stop offset="1" stop-color="#c21f29"/>
    </linearGradient>
    <linearGradient id="linear-gradient-3" x1="0.891" y1="0.78" x2="0.054" y2="0.402" gradientUnits="objectBoundingBox">
      <stop offset="0" stop-color="#eb5a5e"/>
      <stop offset="0.53" stop-color="#e73247"/>
    </linearGradient>
    <linearGradient id="linear-gradient-4" x1="-0.023" y1="0.536" x2="0.738" y2="0.426" gradientUnits="objectBoundingBox">
      <stop offset="0" stop-color="#c21f29"/>
      <stop offset="1" stop-color="#e02435"/>
    </linearGradient>
    <linearGradient id="linear-gradient-5" x1="0.922" y1="0.457" x2="-0.029" y2="0.515" gradientUnits="objectBoundingBox">
      <stop offset="0" stop-color="#c21f29"/>
      <stop offset="0.53" stop-color="#e73247"/>
    </linearGradient>
    <linearGradient id="linear-gradient-6" x1="-0.074" y1="0.677" x2="0.626" y2="0.588" gradientUnits="objectBoundingBox">
      <stop offset="0" stop-color="#c21f29"/>
      <stop offset="1" stop-color="#e73247"/>
    </linearGradient>
  </defs>
  <g id="Grupo_11" data-name="Grupo 11" transform="translate(20286.621 2398)">
    <path id="Caminho_1" data-name="Caminho 1" d="M55.2,356.58H52.55L45.87,340H49l5,13.12L59,340h3Z" transform="translate(-20332.49 -2427.409)" fill="#e73247"/>
    <path id="Caminho_2" data-name="Caminho 2" d="M64.88,336.41v-4h2.79v4Zm0,20V340h2.79v16.43Z" transform="translate(-20332.49 -2427.409)" fill="#e73247"/>
    <path id="Caminho_3" data-name="Caminho 3" d="M83.91,356.42l-.1-1.09a7.3,7.3,0,0,1-4.57,1.59A6.69,6.69,0,0,1,74,354.8q-2.19-2.31-2.19-6.65t2.29-6.61a7.91,7.91,0,0,1,5.9-2.16,9.05,9.05,0,0,1,3.28.61v-7.15l2.81-.43v24Zm-.63-13.89a8.11,8.11,0,0,0-3.25-.66c-3.57,0-5.35,2.1-5.35,6.28a6.69,6.69,0,0,0,1.48,4.74,4.26,4.26,0,0,0,3.34,1.38,5.7,5.7,0,0,0,3.78-1.49Z" transform="translate(-20332.49 -2427.409)" fill="#e73247"/>
    <path id="Caminho_4" data-name="Caminho 4" d="M100.71,356.52c0-.07-.13-.45-.31-1.15a7.94,7.94,0,0,1-4.92,1.55,5.7,5.7,0,0,1-4-1.46,5.07,5.07,0,0,1-1.55-3.87c0-3.54,3.37-5.38,10.12-5.49v-.53a4.14,4.14,0,0,0-1-3.14,3.5,3.5,0,0,0-2.41-.69,12.07,12.07,0,0,0-3.74.69l-.66-2a13.729,13.729,0,0,1,5-1q5.56,0,5.56,5.76v8.23a13.858,13.858,0,0,0,.05,1.43,15.62,15.62,0,0,0,.18,1.58Zm-.67-8.47c-4.85,0-7.27,1.19-7.27,3.47a3.17,3.17,0,0,0,.92,2.44,3.83,3.83,0,0,0,2.62.84,4.92,4.92,0,0,0,3.73-1.53Z" transform="translate(-20332.49 -2427.409)" fill="#e73247"/>
    <path id="Caminho_5" data-name="Caminho 5" d="M128.18,348.78l-2.13.05h-8.31c0,3.79,1.69,5.68,5,5.68a8.88,8.88,0,0,0,4-.92l.72,2a10.31,10.31,0,0,1-5,1.29,7.35,7.35,0,0,1-5.59-2.09c-1.41-1.48-2.12-3.71-2.12-6.71s.74-5.08,2.22-6.61a7.15,7.15,0,0,1,5.46-2.13,6.2,6.2,0,0,1,5.09,2.11,8.33,8.33,0,0,1,1.55,5.87Zm-5.65-6.95c-2.91,0-4.49,1.64-4.76,4.93h8.82q0-4.93-4.06-4.93Zm-.92-4.63-2-.75,3.45-6.22,2.44.92Z" transform="translate(-20332.49 -2427.409)" fill="#e73247"/>
    <path id="Caminho_6" data-name="Caminho 6" d="M162.81,356.42v-9a7.23,7.23,0,0,0-.85-4,3.58,3.58,0,0,0-3.17-1.37,8.75,8.75,0,0,0-4.61,1.29,8,8,0,0,1,.54,3.1v10h-2.81v-9a7.05,7.05,0,0,0-.87-4A3.54,3.54,0,0,0,147.9,342a19.779,19.779,0,0,0-4.19.43v14h-2.78v-16.1a29.911,29.911,0,0,1,7.27-.9,6.08,6.08,0,0,1,4.56,1.59,12.62,12.62,0,0,1,6.32-1.59q6.55,0,6.56,7v10Z" transform="translate(-20332.49 -2427.409)" fill="#e73247"/>
    <path id="Caminho_7" data-name="Caminho 7" d="M177.23,356.92c-5,0-7.57-2.92-7.57-8.77s2.54-8.73,7.57-8.73,7.61,2.91,7.61,8.73S182.31,356.92,177.23,356.92Zm0-15.09q-4.72,0-4.72,6.32t4.72,6.32c3.18,0,4.78-2.11,4.78-6.32s-1.6-6.32-4.78-6.32Z" transform="translate(-20332.49 -2427.409)" fill="#e73247"/>
    <path id="Caminho_8" data-name="Caminho 8" d="M195.59,356.58h-2.65L186.26,340h3.16l5,13.12,5-13.12h3Z" transform="translate(-20332.49 -2427.409)" fill="#e73247"/>
    <path id="Caminho_9" data-name="Caminho 9" d="M205.29,336.41v-4h2.77v4Zm0,20V340h2.77v16.43Z" transform="translate(-20332.49 -2427.409)" fill="#e73247"/>
    <path id="Caminho_10" data-name="Caminho 10" d="M234.85,356.42v-9a7.22,7.22,0,0,0-.86-4,3.6,3.6,0,0,0-3.18-1.37,8.65,8.65,0,0,0-4.59,1.29,8.24,8.24,0,0,1,.53,3.1v10h-2.82v-9a7.33,7.33,0,0,0-.85-4,3.57,3.57,0,0,0-3.14-1.39,20,20,0,0,0-4.21.43v14H213v-16.1a29.849,29.849,0,0,1,7.27-.9,6.08,6.08,0,0,1,4.56,1.59,12.62,12.62,0,0,1,6.32-1.59q6.55,0,6.55,7v10Z" transform="translate(-20332.49 -2427.409)" fill="#e73247"/>
    <path id="Caminho_11" data-name="Caminho 11" d="M255.05,348.78l-2.13.05H244.6q0,5.68,5,5.68a8.809,8.809,0,0,0,4-.92l.74,2a10.38,10.38,0,0,1-5,1.29,7.35,7.35,0,0,1-5.59-2.09c-1.41-1.48-2.11-3.71-2.11-6.71s.73-5.08,2.2-6.61a7.21,7.21,0,0,1,5.46-2.13,6.22,6.22,0,0,1,5.1,2.11,8.48,8.48,0,0,1,1.56,5.87Zm-5.65-6.95q-4.36,0-4.76,4.93h8.83q0-4.93-4.07-4.93Z" transform="translate(-20332.49 -2427.409)" fill="#e73247"/>
    <path id="Caminho_12" data-name="Caminho 12" d="M271.29,356.42v-9a7.15,7.15,0,0,0-.86-4,3.62,3.62,0,0,0-3.21-1.39,15.77,15.77,0,0,0-2.15.1,19,19,0,0,0-2.14.33v14h-2.78v-16.1a31,31,0,0,1,7.37-.9q6.59,0,6.58,7v10Z" transform="translate(-20332.49 -2427.409)" fill="#e73247"/>
    <path id="Caminho_13" data-name="Caminho 13" d="M285.32,356.92a6.06,6.06,0,0,1-3.78-1.1c-1.37-1-2-2.7-2-5v-8.76h-2.88v-1.6l2.88-.29v-4.83l2.21-.1.46,4.81,5.69-.07v2.08h-5.55v8.43q0,4,3.34,4a10.579,10.579,0,0,0,2.64-.36l.46,2.18a10.639,10.639,0,0,1-3.47.61Z" transform="translate(-20332.49 -2427.409)" fill="#e73247"/>
    <path id="Caminho_14" data-name="Caminho 14" d="M297.52,356.92q-7.57,0-7.58-8.77t7.58-8.73q7.61,0,7.61,8.73T297.52,356.92Zm0-15.09c-3.16,0-4.73,2.11-4.73,6.32s1.57,6.32,4.73,6.32,4.76-2.11,4.76-6.32-1.59-6.32-4.76-6.32Z" transform="translate(-20332.49 -2427.409)" fill="#e73247"/>
    <path id="Caminho_15" data-name="Caminho 15" d="M297.21,158.45c0-31.26-143.4-148.86-205.76-126.15C19,58.69,44.72,316.71,120.25,301.09c32.53-6.73,98.8-56.95,98.8-56.95S297.21,189.72,297.21,158.45Z" transform="translate(-20332.49 -2427.409)" fill="url(#linear-gradient)"/>
    <path id="Caminho_16" data-name="Caminho 16" d="M302.48,158.4c0-44.53-132.32-127.93-190.72-125.41-74.45,3.25-62.38,261.37,9.56,261.37C152.74,294.36,302.48,202.94,302.48,158.4Z" transform="translate(-20332.49 -2427.409)" fill="url(#linear-gradient-2)"/>
    <path id="Caminho_17" data-name="Caminho 17" d="M292.23,158.37c0-37.39-113.21-102.22-155-100.78C117,58.29,101.54,92.07,94.8,132c-2.9,17.2-4.54,35.38-3.71,52.83,2.49,51.66,23,95.14,70.71,75.54C182.94,251.73,292.23,195.77,292.23,158.37Z" transform="translate(-20332.49 -2427.409)" fill="url(#linear-gradient-3)"/>
    <path id="Caminho_18" data-name="Caminho 18" d="M282,158.4c0-36.48-93.06-85.78-129.23-82.38-40.52,3.81-23.51,169.46,25,160.1C195.41,232.7,282,194.88,282,158.4Z" transform="translate(-20332.49 -2427.409)" fill="url(#linear-gradient-4)"/>
    <path id="Caminho_19" data-name="Caminho 19" d="M271.15,165.8c14.32-27.93-58.52-61.05-83-66.51-28.71-6.41-29.82,120.4,8.7,117.7C205.9,216.36,255.06,197.15,271.15,165.8Z" transform="translate(-20332.49 -2427.409)" fill="url(#linear-gradient-5)"/>
    <path id="Caminho_20" data-name="Caminho 20" d="M261.38,157.92c-4.1-13.59-34.83-37.65-52.17-36.28-22.11,1.76-21.44,81.59.67,79.83C216.22,201,265.47,171.51,261.38,157.92Z" transform="translate(-20332.49 -2427.409)" fill="url(#linear-gradient-6)"/>
    <path id="Caminho_21" data-name="Caminho 21" d="M147.62,132a5,5,0,0,0-4.52,3.42l-13.83,49.41h14.64l2.09-8.6h15.62l2.09,8.6h14.65l-15-53.5Zm1.44,31.53,4.71-19.21,4.71,19.21Z" transform="translate(-20332.49 -2427.409)" fill="#fff"/>
    <path id="Caminho_22" data-name="Caminho 22" d="M94.8,132a5,5,0,0,0-4.51,3.42L76.46,184.87H91.09l2.1-8.6h15.62l2.09,8.6h14.64l-15-53.5Zm1.33,31.53,4.7-19.21,4.72,19.21Z" transform="translate(-20332.49 -2427.409)" fill="#fff"/>
    <path id="Caminho_23" data-name="Caminho 23" d="M193.59,158.45c0,11.06,3.67,14.27,10.63,14.27,4,0,5.67-.45,11.28-1.72l2.38,12.56a64.34,64.34,0,0,1-14.78,1.86c-13.76,0-24.44-6.86-24.44-27s10.68-27,24.44-27a63.81,63.81,0,0,1,14.78,1.87L215.5,145.9c-5.61-1.27-7.32-1.72-11.28-1.72C197.26,144.18,193.59,147.4,193.59,158.45Z" transform="translate(-20332.49 -2427.409)" fill="#fff"/>
    <path id="Caminho_24" data-name="Caminho 24" d="M248.61,131.85c-.25,0-13.75-.13-14.85,0s-7.3-.25-8.58,6.17c-1.38,6.87-1.21,20.35-1.21,20.35h0s-.17,13.47,1.21,20.34c.95,4.79,4.55,5.77,7.07,6.08,1.81.22,15.63.15,15.63.15h.73c16.06,0,25.76-8.82,25.76-26.55S264.67,131.85,248.61,131.85Zm-5.71,39.26c-7,0-7-25.49,0-25.47,5.52,0,17.75,9.84,17.74,12.78C260.69,163,244.92,171.13,242.9,171.11Z" transform="translate(-20332.49 -2427.409)" fill="#fff"/>
  </g>
</svg>
