<svg xmlns="http://www.w3.org/2000/svg" width="12" height="12" viewBox="0 0 12 12">
  <g id="money" transform="translate(-11.664 -1.333)" opacity="0.2">
    <g id="Grupo_1117" data-name="Grupo 1117" transform="translate(11.664 1.333)">
      <g id="Grupo_1116" data-name="Grupo 1116">
        <path id="Caminho_2052" data-name="Caminho 2052" d="M194,31.992a6,6,0,1,0,6,6A6,6,0,0,0,194,31.992Zm0,10.8a4.8,4.8,0,1,1,4.8-4.8A4.8,4.8,0,0,1,194,42.792Z" transform="translate(-187.997 -31.992)" fill="#1a1824"/>
      </g>
    </g>
    <g id="Grupo_1119" data-name="Grupo 1119" transform="translate(15.264 3.733)">
      <g id="Grupo_1118" data-name="Grupo 1118">
        <path id="Caminho_2053" data-name="Caminho 2053" d="M239.717,67.4l-.72-.24v-1.54a.9.9,0,0,1,.6.771h1.2a2.172,2.172,0,0,0-1.8-2.026v-.374h-1.2v.374a2.172,2.172,0,0,0-1.8,2.026,1.508,1.508,0,0,0,1.08,1.391l.72.24v1.538a.9.9,0,0,1-.6-.77H236a2.172,2.172,0,0,0,1.8,2.026v.374H239v-.374a2.172,2.172,0,0,0,1.8-2.026A1.508,1.508,0,0,0,239.717,67.4Zm-1.92-.64-.342-.115c-.152-.051-.258-.155-.258-.254a.9.9,0,0,1,.6-.771Zm1.2,2.8v-1.14l.342.115c.152.051.258.155.258.254A.9.9,0,0,1,239,69.563Z" transform="translate(-235.997 -63.992)" fill="#1a1824"/>
      </g>
    </g>
  </g>
</svg>
