<svg id="Notification" xmlns="http://www.w3.org/2000/svg" width="15.316" height="18.778" viewBox="0 0 15.316 18.778">
  <g id="Group_575" data-name="Group 575" transform="translate(0 1)">
    <path id="Vector" d="M14.93,12.274l-.194-.235c-.873-1.056-1.4-1.693-1.4-4.683a6.062,6.062,0,0,0-1.1-3.77,5.177,5.177,0,0,0-2.224-1.632.119.119,0,0,1-.033-.027A2.536,2.536,0,0,0,7.626,0,2.536,2.536,0,0,0,5.273,1.927a.124.124,0,0,1-.032.026C3,2.874,1.916,4.641,1.916,7.355c0,2.991-.527,3.628-1.4,4.683-.063.077-.128.154-.194.235a1.4,1.4,0,0,0-.185,1.493A1.483,1.483,0,0,0,1.5,14.6H13.757a1.481,1.481,0,0,0,1.357-.833,1.4,1.4,0,0,0-.183-1.494Zm-7.3,5.5a3.177,3.177,0,0,0,2.8-1.672.159.159,0,0,0-.14-.233H4.972a.159.159,0,0,0-.141.233,3.177,3.177,0,0,0,2.795,1.672Z" fill="#666" opacity="0.5"/>
  </g>
  <g id="Ellipse_119" data-name="Ellipse 119" transform="translate(9.316)" fill="#ff2121" stroke="#fff" stroke-width="1">
    <circle cx="3" cy="3" r="3" stroke="none"/>
    <circle cx="3" cy="3" r="2.5" fill="none"/>
  </g>
</svg>
