<svg id="Grupo_916" data-name="Grupo 916" xmlns="http://www.w3.org/2000/svg" width="68.224" height="80" viewBox="0 0 68.224 80">
  <path id="Caminho_1322" data-name="Caminho 1322" d="M1246.749,1288.087a1.883,1.883,0,0,0-2.658,0l-9.836,9.836-3.346-3.345a1.925,1.925,0,0,0-2.658,0,1.881,1.881,0,0,0,0,2.658l4.675,4.675h0a1.884,1.884,0,0,0,2.658,0l11.165-11.165A1.884,1.884,0,0,0,1246.749,1288.087Z" transform="translate(-1203.388 -1255)" fill="#666"/>
  <path id="Caminho_1323" data-name="Caminho 1323" d="M1270.374,1268.814a133.082,133.082,0,0,1-32.018-13.58,1.681,1.681,0,0,0-1.711,0,129.419,129.419,0,0,1-32.019,13.58,1.683,1.683,0,0,0-1.238,1.623v17.195a49.463,49.463,0,0,0,15.021,36.141C1225.787,1331,1234.38,1335,1237.5,1335s11.714-4,19.091-11.227a49.463,49.463,0,0,0,15.021-36.141v-17.195A1.683,1.683,0,0,0,1270.374,1268.814Zm-2.127,18.818a46.165,46.165,0,0,1-14.011,33.737c-7.255,7.109-15.012,10.265-16.736,10.265s-9.481-3.156-16.736-10.265a46.17,46.17,0,0,1-14.011-33.737v-15.917a132.568,132.568,0,0,0,30.748-13.082,136.748,136.748,0,0,0,30.746,13.081Z" transform="translate(-1203.388 -1255)" fill="#666"/>
</svg>
