<svg xmlns="http://www.w3.org/2000/svg" width="45" height="45" viewBox="0 0 45 45">
  <g id="Grupo_1998" data-name="Grupo 1998" transform="translate(-992 -557)">
    <g id="Elipse_412" data-name="Elipse 412" transform="translate(992 557)" fill="#fff" stroke="#666" stroke-width="1">
      <circle cx="22.5" cy="22.5" r="22.5" stroke="none"/>
      <circle cx="22.5" cy="22.5" r="22" fill="none"/>
    </g>
    <path id="Icon_awesome-twitter" data-name="Icon awesome-twitter" d="M18.692,7.6c.013.185.013.37.013.555A12.065,12.065,0,0,1,6.557,20.3,12.066,12.066,0,0,1,0,18.385a8.833,8.833,0,0,0,1.031.053,8.551,8.551,0,0,0,5.3-1.824A4.277,4.277,0,0,1,2.34,13.652a5.385,5.385,0,0,0,.806.066,4.516,4.516,0,0,0,1.124-.145A4.27,4.27,0,0,1,.846,9.382V9.329a4.3,4.3,0,0,0,1.93.542A4.276,4.276,0,0,1,1.454,4.161a12.137,12.137,0,0,0,8.8,4.468,4.82,4.82,0,0,1-.106-.978,4.274,4.274,0,0,1,7.39-2.921A8.406,8.406,0,0,0,20.252,3.7a4.258,4.258,0,0,1-1.877,2.353,8.56,8.56,0,0,0,2.459-.661A9.178,9.178,0,0,1,18.692,7.6Z" transform="translate(1004 567.619)" fill="#666"/>
  </g>
</svg>
