<svg id="Frame_579" data-name="Frame 579" xmlns="http://www.w3.org/2000/svg" width="15" height="11.25" viewBox="0 0 15 11.25">
  <g id="Group">
    <g id="Group-2" data-name="Group">
      <g id="Group-3" data-name="Group">
        <path id="Vector" d="M6.893.555A1.506,1.506,0,0,1,7.161.4,8.737,8.737,0,0,0,4.353,0a7.127,7.127,0,0,0-3.17.6C.126,1.31.016,3.529,0,3.976a.545.545,0,0,0,.142.37A.519.519,0,0,0,.5,4.5H5.252C5.331,3.406,5.615,1.4,6.893.555Z" transform="translate(0 5.964)" fill="#666"/>
        <path id="Vector-2" data-name="Vector" d="M5.268,2.574A2.6,2.6,0,0,1,2.634,5.147,2.6,2.6,0,0,1,0,2.574,2.6,2.6,0,0,1,2.634,0,2.6,2.6,0,0,1,5.268,2.574Z" transform="translate(1.735)" fill="#666"/>
        <path id="Vector-3" data-name="Vector" d="M8.707,3.9C8.691,3.344,8.549,1.264,7.524.6A7.127,7.127,0,0,0,4.353,0a7.127,7.127,0,0,0-3.17.6C.126,1.31.016,3.529,0,3.976a.545.545,0,0,0,.142.37A.55.55,0,0,0,.5,4.5H8.186a.519.519,0,0,0,.521-.509Z" transform="translate(6.293 6.75)" fill="#666"/>
        <path id="Vector-4" data-name="Vector" d="M5.268,2.574A2.6,2.6,0,0,1,2.634,5.147,2.6,2.6,0,0,1,0,2.574,2.6,2.6,0,0,1,2.634,0,2.6,2.6,0,0,1,5.268,2.574Z" transform="translate(8.013 0.801)" fill="#666"/>
      </g>
    </g>
  </g>
</svg>
