<svg xmlns="http://www.w3.org/2000/svg" width="13.726" height="16" viewBox="0 0 13.726 16">
  <path id="Vector" d="M13.437,11.047l-.175-.212C12.477,9.885,12,9.311,12,6.621a5.456,5.456,0,0,0-.99-3.393,4.66,4.66,0,0,0-2-1.469.107.107,0,0,1-.029-.024A2.282,2.282,0,0,0,6.863,0,2.282,2.282,0,0,0,4.746,1.734a.112.112,0,0,1-.029.023C2.7,2.586,1.725,4.177,1.725,6.62c0,2.691-.475,3.265-1.261,4.214l-.175.212a1.256,1.256,0,0,0-.166,1.344,1.335,1.335,0,0,0,1.226.753H12.381a1.332,1.332,0,0,0,1.221-.75,1.256,1.256,0,0,0-.165-1.345ZM6.863,16a2.859,2.859,0,0,0,2.516-1.5.143.143,0,0,0-.126-.21H4.474a.143.143,0,0,0-.127.21A2.859,2.859,0,0,0,6.863,16Z" fill="#666"/>
</svg>
