<svg id="Group_1235" data-name="Group 1235" xmlns="http://www.w3.org/2000/svg" width="15" height="13.75" viewBox="0 0 15 13.75">
  <path id="Vector" d="M3.57,1.833A1.81,1.81,0,0,1,1.785,3.667,1.81,1.81,0,0,1,0,1.833,1.81,1.81,0,0,1,1.785,0,1.81,1.81,0,0,1,3.57,1.833Z" transform="translate(3.495 10.083)" fill="#666"/>
  <path id="Vector-2" data-name="Vector" d="M3.57,1.833A1.81,1.81,0,0,1,1.785,3.667,1.81,1.81,0,0,1,0,1.833,1.81,1.81,0,0,1,1.785,0,1.81,1.81,0,0,1,3.57,1.833Z" transform="translate(9.742 10.083)" fill="#666"/>
  <path id="Vector-3" data-name="Vector" d="M14.81,1.712a.828.828,0,0,0-.289-.2.944.944,0,0,0-.358-.069H3.552L3.338.4A.473.473,0,0,0,3.148.113.613.613,0,0,0,2.789,0H.558A.6.6,0,0,0,.163.141.452.452,0,0,0,0,.482.452.452,0,0,0,.163.824.6.6,0,0,0,.558.965H2.321l1.592,7.8a.473.473,0,0,0,.191.286.613.613,0,0,0,.359.113h8.925a.6.6,0,0,0,.394-.141.438.438,0,0,0,0-.682.6.6,0,0,0-.394-.141H4.93l-.2-.965h8.425a.923.923,0,0,0,.531-.164.716.716,0,0,0,.291-.417l1-4.342A.629.629,0,0,0,14.975,2a.692.692,0,0,0-.165-.284Z" transform="translate(0 0)" fill="#666"/>
</svg>
