<svg xmlns="http://www.w3.org/2000/svg" width="45" height="45" viewBox="0 0 45 45">
  <g id="Grupo_1994" data-name="Grupo 1994" transform="translate(-835 -557)">
    <g id="Elipse_409" data-name="Elipse 409" transform="translate(835 557)" fill="#fff" stroke="#666" stroke-width="1">
      <circle cx="22.5" cy="22.5" r="22.5" stroke="none"/>
      <circle cx="22.5" cy="22.5" r="22" fill="none"/>
    </g>
    <path id="Icon_awesome-whatsapp" data-name="Icon awesome-whatsapp" d="M17.713,5.277A10.327,10.327,0,0,0,1.465,17.735L0,23.083l5.473-1.437A10.292,10.292,0,0,0,10.407,22.9h0A10.423,10.423,0,0,0,20.833,12.578a10.364,10.364,0,0,0-3.12-7.3Zm-7.3,15.885a8.565,8.565,0,0,1-4.371-1.2l-.312-.186-3.246.851.865-3.167-.2-.326a8.6,8.6,0,1,1,15.946-4.562A8.677,8.677,0,0,1,10.412,21.163Zm4.706-6.427c-.256-.13-1.525-.753-1.762-.837s-.409-.13-.581.13-.665.837-.818,1.014-.3.2-.558.065a7.022,7.022,0,0,1-3.511-3.069c-.265-.456.265-.423.758-1.409a.478.478,0,0,0-.023-.451c-.065-.13-.581-1.4-.8-1.916S7.4,7.83,7.245,7.821s-.321-.009-.493-.009a.956.956,0,0,0-.688.321,2.9,2.9,0,0,0-.9,2.153,5.054,5.054,0,0,0,1.051,2.669,11.527,11.527,0,0,0,4.408,3.9,5.048,5.048,0,0,0,3.1.646,2.642,2.642,0,0,0,1.739-1.228,2.157,2.157,0,0,0,.149-1.228C15.546,14.927,15.374,14.862,15.118,14.736Z" transform="translate(847 566.75)" fill="#666"/>
  </g>
</svg>
